<?xml version="1.0" encoding="UTF-8" standalone="no"?>
<!DOCTYPE svg PUBLIC "-//W3C//DTD SVG 1.1//EN" "http://www.w3.org/Graphics/SVG/1.1/DTD/svg11.dtd">
<svg width="100%" height="100%" viewBox="0 0 1024 1024" version="1.1" xmlns="http://www.w3.org/2000/svg" xmlns:xlink="http://www.w3.org/1999/xlink" xml:space="preserve" xmlns:serif="http://www.serif.com/" style="fill-rule:evenodd;clip-rule:evenodd;stroke-linejoin:round;stroke-miterlimit:2;">
    <rect x="-4" y="0" width="1031" height="1027"/>
    <g transform="matrix(1,0,0,1,-279,-128)">
        <path d="M501.4,785L501.4,665L351,501L447.4,501L542.2,605.8L637,501L731.8,501L581.4,665L581.4,785L501.4,785Z" style="fill:rgb(238,238,238);fill-rule:nonzero;"/>
        <rect x="699.4" y="716.2" width="75.6" height="68.8" style="fill:rgb(238,238,238);fill-rule:nonzero;"/>
        <path d="M965.4,789.8C929.4,789.8 898.8,783.467 873.6,770.8C848.4,758.133 829.133,740.733 815.8,718.6C802.467,696.467 795.8,671.4 795.8,643.4C795.8,615.133 802.4,589.933 815.6,567.8C828.8,545.667 848.067,528.2 873.4,515.4C898.733,502.6 929.4,496.2 965.4,496.2C1001.667,496.2 1032.4,502.533 1057.6,515.2C1082.8,527.867 1102,545.267 1115.2,567.4C1128.4,589.533 1135,614.867 1135,643.4C1135,671.4 1128.4,696.467 1115.2,718.6C1102,740.733 1082.8,758.133 1057.6,770.8C1032.4,783.467 1001.667,789.8 965.4,789.8ZM965.4,729C992.6,729 1014.2,721.867 1030.2,707.6C1046.2,693.333 1054.2,673.533 1054.2,648.2L1054.2,637.8C1054.2,612.467 1046.2,592.667 1030.2,578.4C1014.2,564.133 992.6,557 965.4,557C938.2,557 916.6,564.133 900.6,578.4C884.6,592.667 876.6,612.467 876.6,637.8L876.6,648.2C876.6,673.533 884.6,693.333 900.6,707.6C916.6,721.867 938.2,729 965.4,729Z" style="fill:rgb(238,238,238);fill-rule:nonzero;"/>
        <rect x="1156.2" y="716.2" width="75.6" height="68.8" style="fill:rgb(238,238,238);fill-rule:nonzero;"/>
    </g>
</svg>
